<?xml version="1.0" encoding="UTF-8"?>
<svg xmlns="http://www.w3.org/2000/svg" version="1.1" viewBox="0 0 74 26">
  <defs>
    <style>
      .cls-1 {
        fill: #fff;
      }
    </style>
  </defs>
  <!-- Generator: Adobe Illustrator 28.7.1, SVG Export Plug-In . SVG Version: 1.2.0 Build 142)  -->
  <g>
    <g id="Layer_1">
      <g>
        <path class="cls-1" d="M16.8,1.3c.2,0,.5,0,.7.1,3.1.5,5.4,2.2,7,4.9.6,1,.9,2.1,1.3,3.1,1.2,3.4,2.4,6.8,3.6,10.2,0,0,0,0,0,.2.2-.4.3-.8.4-1.2,1-2.9,2.1-5.8,3.1-8.7.4-1.2.8-2.3,1.2-3.5,0-.1,0-.2.2-.2.7,0,1.3,0,2,0,0,0,.2,0,.2,0,0,.1-.1,0-.2,0-.1,0-.2,0-.3,0-.5,0-.7.4-.8.9,0,.5,0,.9,0,1.4.1,1.5.3,3,.4,4.5.1,1.6.3,3.3.4,4.9,0,.7.1,1.4.2,2.1,0,0,0,.1,0,.2.2.9.5,1.1,1.3,1.2,0,0,.2,0,.2,0,0,.1-.1,0-.2,0-1.1,0-2.2,0-3.4,0,0,0,0,0-.1,0,0,0,0,0,0,0,0,0,0,0,0,0,.1,0,.2,0,.3,0,.6,0,.9-.4.9-.9,0-.6,0-1.2,0-1.7-.1-1.3-.2-2.7-.3-4-.1-1.5-.3-3-.4-4.5,0-1.1-.2-2.2-.3-3.3,0,0,0-.1,0-.2,0,.2-.2.4-.2.6-1.5,4.1-2.9,8.2-4.4,12.3,0,.2,0,.3,0,.5.3,1,.7,1.9,1.3,2.7.5.7,1,1.3,1.8,1.6.2,0,.4.1.6.2,0,0,.2,0,.1,0,0,0-.1,0-.2,0-.6,0-1.2-.2-1.7-.6-1.3-.8-2.2-2-2.7-3.5-1.5-4.3-3-8.6-4.6-12.9,0,0,0,0,0-.2,0,.3,0,.5,0,.8-.2,1.8-.3,3.7-.5,5.5-.2,1.8-.3,3.7-.5,5.5,0,.4,0,.8,0,1.1,0,.5.3.8.9.8.1,0,.3,0,.4,0,0,.1,0,0-.1,0-1,0-1.9,0-2.9,0,0,0-.1,0-.1,0,0,0,0,0,.1,0,.1,0,.2,0,.4,0,.5,0,.8-.3.9-.8.1-.4.2-.9.2-1.3.2-2.2.4-4.4.5-6.6.2-1.8.3-3.6.5-5.4,0,0,0-.2,0-.3-1.5-3-3.9-4.9-7.2-5.6-1.1-.2-2.1-.2-3.2,0-.3,0-.6.2-.8.4,0,0,0,0-.1,0,0,0,0-.1,0-.1.6-.4,1.2-.6,1.9-.7.2,0,.3,0,.5,0h1.6Z"/>
        <path class="cls-1" d="M2.7,21.7c.2,0,.5,0,.7,0,.5,0,.8-.3.8-.8,0-.2,0-.4,0-.5,0-4.1,0-8.3,0-12.4,0-.2,0-.5,0-.7,0-.3-.3-.5-.6-.6-.2,0-.3,0-.5,0,0,0-.3,0-.3,0,0-.1.2,0,.3,0,.2,0,.3,0,.5,0,2.4,0,4.8,0,7.1,0,.2,0,.3,0,.3.2,0,.8.1,1.6.2,2.4,0,0,0,0,0,.1,0,0,0-.1,0-.2,0-.4-.2-.8-.4-1.2-.3-.6-.9-.9-1.5-1-.7-.1-1.3-.2-2-.2-.6,0-1.3,0-1.9,0-.1,0-.2,0-.2.2,0,4.6,0,9.1,0,13.7,0,.2,0,.3,0,.5,0,.5.4.7.9.7.2,0,.4,0,.6,0,0,0,.2,0,.2,0,0,0-.1,0-.2,0-.6,0-1.3,0-1.9,0-.7,0-1.3,0-2,0,0,0,0,0,0,0Z"/>
        <path class="cls-1" d="M21,9.1c0-.2,0-.4-.1-.6-.3-1.1-.8-1.7-2-1.9-.9-.1-1.8-.1-2.8-.1-.3,0-.6,0-.9,0-.2,0-.2,0-.2.2,0,1,0,2,0,3,0,1,0,2,0,3.1,0,.2,0,.2.2.2.8,0,1.6,0,2.4,0,.2,0,.4,0,.6,0,.5-.1.7-.4.7-1,0,0,0-.2,0-.2,0,0,0,0,0,.1,0,.9,0,1.8,0,2.7,0,0,0,.1,0,.1,0,0,0,0,0-.1,0-.9-.4-1.2-1.3-1.2-.8,0-1.7,0-2.5,0-.2,0-.1,0-.1.2,0,.6,0,1.2,0,1.8,0,1.6,0,3.3,0,4.9,0,.2,0,.3,0,.5,0,.6.3.9.9.9.2,0,.4,0,.6,0,0,0,.1,0,.1,0,0,0,0,0-.1,0-.3,0-.7,0-1,0-.9,0-1.8,0-2.6,0s0,0-.1,0c0,0-.2,0-.2,0,0,0,0,0,.1,0,.2,0,.3,0,.5,0,.5,0,.8-.3.8-.8,0-.2,0-.4,0-.6,0-2.2,0-4.5,0-6.7,0-.2,0-.2-.3-.2-2,0-3.9,0-5.9,0-.2,0-.4,0-.6,0-.6.1-.8.4-.9,1,0,0,0,.2,0,.2,0,0,0-.2,0-.2,0-.8,0-1.7,0-2.5,0,0,0-.1,0-.2,0,0,0,0,0,0,0,0,0,0,0,0,0,.1,0,.3,0,.4,0,.4.3.7.7.8.4,0,.8.1,1.2.1,1.8,0,3.7,0,5.5,0,.2,0,.2,0,.2-.2,0-1.7,0-3.4,0-5.1,0-.2,0-.4,0-.5,0-.4-.3-.6-.7-.7-.2,0-.4,0-.7,0,0,0,0,0,0,0,0,0,0,0,0,0,0,0,0,0,.1,0,2.6,0,5.1,0,7.7,0,.2,0,.2,0,.3.2,0,.8.1,1.6.2,2.4,0,0,0,.1,0,.2,0,0,0,0,0,0Z"/>
      </g>
    </g>
  </g>
</svg>